<?xml version="1.0" encoding="utf-8"?>
<!-- Generator: Adobe Illustrator 18.1.1, SVG Export Plug-In . SVG Version: 6.00 Build 0)  -->
<svg version="1.1" id="Laag_1" xmlns="http://www.w3.org/2000/svg" xmlns:xlink="http://www.w3.org/1999/xlink" x="0px" y="0px"
	 viewBox="0 0 127.6 159.7" enable-background="new 0 0 127.6 159.7" xml:space="preserve">
<path fill="#DFD8CB" d="M127.6,20.3c0-11.2-9.1-20.3-20.3-20.3H20.3C9.1,0,0,9.1,0,20.3v119c0,11.2,9.1,20.3,20.3,20.3h86.9
	c11.2,0,20.3-9.1,20.3-20.3V20.3z"/>
<path fill="#150F06" d="M121.9,20.3c0-8.1-6.6-14.7-14.7-14.7H20.3c-8.1,0-14.7,6.6-14.7,14.7v119c0,8.1,6.6,14.7,14.7,14.7h86.9
	c8.1,0,14.7-6.6,14.7-14.7V20.3z"/>
<path fill="#DFD8CB" d="M126.3,78.3c0.1-2-0.2-4.1-0.3-6.1c0,0-0.1,0-0.1,0c0-0.3,0-0.7-0.1-1c0,0-0.1,0-0.1,0c0-0.2,0-0.4,0-0.5
	c0,0-0.1,0-0.1,0c0-0.3,0-0.6-0.1-0.9c0,0-0.1,0-0.1,0c0-0.1,0-0.2,0-0.3c0,0-0.1,0-0.1,0c0-0.2,0-0.4,0-0.6c0,0-0.1,0-0.1,0
	c0-0.1,0-0.2,0-0.3c0,0-0.1,0-0.1,0c0-0.2,0-0.4,0-0.6c0,0-0.1,0-0.1,0c0-0.1,0-0.2,0-0.3c-0.4,0,0.1-0.9-0.3-0.9c0-0.1,0-0.2,0-0.4
	c0,0-0.1,0-0.1,0c0-0.1,0-0.2,0-0.4c0,0-0.1,0-0.1,0c0-0.1,0-0.1,0-0.2c0,0-0.1,0-0.1,0c0-0.5-0.4-0.9-0.5-1.4c-0.3,0,0-0.5-0.3-0.4
	c0-0.1,0-0.1,0-0.2c-0.4,0-0.1-1-0.6-1c0,0,0,0,0,0v0c0,0,0,0,0,0c0-0.2-0.2-1-0.4-1c0-0.2-0.7-1.4-0.9-1.4c0-0.1,0-0.1,0-0.2
	c0,0-0.1,0-0.1,0c0-0.1,0-0.1,0-0.2c0,0-0.1,0-0.1,0c0-0.1,0-0.1,0-0.2c-0.6,0-0.8-1.8-1.4-1.7c0-0.4-0.4,0-0.4-0.4
	c-0.1,0-1.9-1.9-2-2.2c-0.2,0-0.5-0.1-0.5-0.3c-0.2,0-1.8-0.9-1.9-1.1c-0.9,0.1-1.8-0.7-2.8-0.6c0,0,0-0.1,0-0.1c-0.1,0-0.1,0-0.2,0
	c0,0,0-0.1,0-0.1c-0.2,0-0.4,0-0.5,0c0,0,0-0.1,0-0.1c-0.1,0-0.2,0-0.3,0c0,0,0-0.1,0-0.1c-1.5,0.1-2.9-0.2-4.4-0.1
	c-1.3,0.1-2.6,0.5-4,0.6c0,0,0,0.1,0,0.1c-0.1,0-0.2,0-0.3,0c0,0,0,0.1,0,0.1c-0.8,0.1-0.4,0.2-1.3,0.3c0,0,0,0.1,0,0.1
	c-0.1,0-0.1,0-0.2,0c0,0,0,0.1,0,0.1c-0.1,0-0.2,0-0.4,0c0,0,0,0.1,0,0.1c-0.1,0-0.1,0-0.2,0c0,0,0,0.1,0,0.1c-0.1,0-0.3,0-0.4,0
	c0,0.3-0.4,0-0.3,0.3c-0.1,0-0.2,0-0.3,0c0,0.2-0.9,0.7-1.1,0.7c0,0,0,0.1,0,0.1c-0.1,0-0.1,0-0.2,0c0,0,0,0.1,0,0.1
	c-0.4,0-0.3,0.4-0.7,0.4c0,0.4-0.9,0.4-0.9,0.9c-0.6,0-0.7,1-1.3,1.1c0,0.1,0,0.1,0,0.2c-0.1,0-0.1,0-0.2,0c0,0.2-0.2,0.5-0.4,0.5
	c0,0.1,0,0.1,0,0.2c-0.6,0-0.6,1.3-1.1,1.3c0,0.1,0,0.2,0,0.3c-0.6,0-0.6,2-1.1,2.1c0,0.1,0,0.2,0,0.3c0,0-0.1,0-0.1,0
	c0,0.1,0,0.2,0,0.3c0,0-0.1,0-0.1,0c0,0.1,0,0.2,0,0.4c0,0-0.1,0-0.1,0c0,0.1,0,0.1,0,0.2c-0.5,0,0.3,1-0.2,1c0,0.1,0,0.2,0,0.3
	c0,0-0.1,0-0.1,0c0,0.3,0,0.5,0,0.8c0,0-0.1,0-0.1,0c0,0.1,0,0.1,0,0.2c0,0-0.1,0-0.1,0c0.1,1.1-0.2,2.5,0.1,3.5c0,0,0.1,0,0.1,0
	c0,0.4,0,0.8,0.1,1.2c0.5,0-0.2,1.1,0.3,1.1c0,0.1,0,0.2,0,0.4c0,0,0.1,0,0.1,0c0,0.2,0,0.3,0,0.5c0.4,0,0,0.6,0.3,0.6
	c0,0.1,0,0.1,0,0.2c0,0,0.1,0,0.1,0c0,0.1,0,0.2,0,0.3c0,0,0.1,0,0.1,0c0,0.5,0.4,0.7,0.4,1.2c0.4,0,0.7,1.6,1.1,1.6
	c0,0.5,0.5,0.5,0.5,0.9c0.1,0,2.5,2.3,2.5,2.4c0.1,0,0.1,0,0.2,0c0,0.6,1.9,0.9,1.9,1.3c0.5,0,0.9,0.5,1.5,0.5c0,0,0,0.1,0,0.1
	c0.1,0,0.1,0,0.2,0c0,0,0,0.1,0,0.1c0.1,0,0.2,0,0.3,0c0,0,0,0.1,0,0.1c0.1,0,0.2,0,0.4,0c0,0,0,0.1,0,0.1c0.1,0,0.2,0,0.4,0
	c0,0,0,0.1,0,0.1c0.2,0,0.4,0,0.5,0c0,0,0,0.1,0,0.1c0.1,0,0.1,0,0.2,0c0,0,0,0.1,0,0.1c0.2,0,0.5,0,0.7,0c0,0,0,0.1,0,0.1
	c0.1,0,0.2,0,0.3,0c0,0,0,0.1,0,0.1c0.2,0,0.5,0,0.7,0v0.1c0.1,0,0.2,0,0.3,0c0,0,0,0.1,0,0.1c0.2,0,0.5,0,0.7,0c0,0,0,0.1,0,0.1
	c0.1,0,0.2,0,0.4,0c0,0,0,0.1,0,0.1c0.1,0,0.2,0,0.4,0c0,0,0,0.1,0,0.1c0.7,0,1.3-0.1,2-0.1c0,0,0-0.1,0-0.1c0.1,0,0.3,0,0.5,0
	c0,0,0-0.1,0-0.1c0.1,0,0.1,0,0.2,0c0,0,0-0.1,0-0.1c0.2,0,0.4,0,0.6,0c0-0.4,0.5-0.1,0.4-0.4c0.1,0,0.2,0,0.4,0
	c0-0.3,0.5-0.1,0.5-0.4c0.1,0,0.1,0,0.2,0c0,0,0-0.1,0-0.1c0.3,0,0.1-0.2,0.5-0.2c0-0.3,0.3-0.1,0.3-0.4c0.7,0,1.1-1.3,1.7-1.4
	c0-0.6,0.8-0.4,0.8-1c0.1,0,0.1,0,0.2,0c0-0.1,0-0.1,0-0.2c0.5,0,0.4-1,0.9-1.1c0-0.1,0-0.1,0-0.2c0.3,0,0.1-0.4,0.4-0.4
	c0-0.2,1.6-3.6,1.5-3.6c0-0.1,0-0.1,0-0.2c0,0,0.1,0,0.1,0c0-0.1,0-0.2,0-0.3c0.5,0-0.3-1,0.2-1c0-0.1,0-0.2,0-0.3c0,0,0.1,0,0.1,0
	c0-0.4-0.1-0.8-0.1-1.2c0,0,0.1,0,0.1,0c0.2-1-0.2-2.2-0.3-3.3c0,0-0.1,0-0.1,0c0-0.1,0-0.1,0-0.2c0,0-0.1,0-0.1,0
	c0-0.2,0-0.4,0-0.6c0,0-0.1,0-0.1,0c0-0.1,0-0.2,0-0.3c0,0-0.1,0-0.1,0c0-0.1,0-0.1,0-0.2c0,0-0.1,0-0.1,0c0-0.1,0-0.2,0-0.3
	c0,0-0.1,0-0.1,0c0-0.1,0-0.2,0-0.3c-0.3,0,0-0.4-0.3-0.3c0-0.3-0.7-1.8-1.1-1.8c0-0.6-1.7-2.1-2.3-2.2c0-0.6-1.9-0.8-1.9-1.2
	c-0.1,0-0.2,0-0.3,0c0,0,0-0.1,0-0.1c-0.1,0-0.1,0-0.2,0c0,0,0-0.1,0-0.1c-0.6,0-1.1-0.3-1.8-0.3c0,0,0-0.1,0-0.1
	c-0.1,0-0.2,0-0.3,0c0,0,0-0.1,0-0.1c-1.1,0.1-2.4-0.2-3.4,0.1c0,0,0,0.1,0,0.1c-0.3,0-0.6,0-0.9,0.1c0,0,0,0.1,0,0.1
	c-0.1,0-0.2,0-0.3,0c0,0,0,0.1,0,0.1c-0.9,0.1-1.4,0.6-2.2,0.7c0,0.3-0.4,0-0.3,0.3c-0.5,0-0.9,0.9-1.5,0.9
	c-0.2,0.3-1.6,2.3-1.8,2.3c0,0.1,0,0.2,0,0.3c-0.5,0-0.3,1.6-0.7,1.6c0,0.1,0,0.2,0,0.3c0,0-0.1,0-0.1,0c0,0.1,0,0.1,0,0.2
	c0,0-0.1,0-0.1,0c0,0.2,0,0.4,0,0.5c0,0-0.1,0-0.1,0c0,0.1,0,0.1,0,0.2c0,0-0.1,0-0.1,0c0,0.2,0,0.3,0,0.5c0,0-0.1,0-0.1,0
	c0,0.1,0,0.2,0,0.4c0,0-0.1,0-0.1,0c0,0.4,0,0.8,0.1,1.3c0,0-0.1,0-0.1,0c0,0.2,0,0.4,0,0.5c0,0,0.1,0,0.1,0c0,0.4,0,0.7,0.1,1.1
	c0,0,0.1,0,0.1,0c0,0.1,0,0.2,0,0.4c0,0,0.1,0,0.1,0c0,0.8,0.2,0.4,0.2,1c0.4,0,0.1,0.8,0.5,0.8c0,0.4,0.4,0.4,0.4,0.9
	c0.3,0,0.1,0.3,0.4,0.3c0,0.4,0.2,0.2,0.2,0.5c0.1,0,0.9,0.9,0.9,1c0.2,0,0.7,0.4,0.7,0.6c0.2,0,0.4,0.1,0.4,0.3c0.1,0,0.1,0,0.2,0
	c0,0.3,0.7,0.3,0.7,0.6c0.4,0,0.6,0.5,1.1,0.5c0,0.3,0.4,0,0.4,0.3c0.6,0,1.2,0.3,2,0.2c0,0,0,0.1,0,0.1c0.5,0,1-0.1,1.5-0.1
	c0,0,0-0.1,0-0.1c0.2,0,0.4,0,0.6,0c0-0.4,2.7-1,2.6-1.8c0.1,0,0.1,0,0.2,0c0-0.1,0-0.1,0-0.2c0.9-0.1,1.1-2.3,1.7-2.3
	c0-0.4,0.2-0.2,0.1-0.6c0,0,0.1,0,0.1,0c0-0.1,0-0.1,0-0.2c0.4,0,0.4-1.9,0.4-2.3c0,0,0.1,0,0.1,0c0-0.1,0-0.2,0-0.3
	c0,0,0.1,0,0.1,0c0-0.6-0.1-1.2-0.1-1.8c0,0-0.1,0-0.1,0c0-0.1,0-0.2,0-0.3c0,0-0.1,0-0.1,0c0-0.8-0.2-0.4-0.3-1.1c0,0-0.1,0-0.1,0
	c0-0.3-0.7-1.5-1-1.5c-0.1-0.8-1.8-1-1.8-1.5c-0.7,0-0.3-0.2-1.1-0.1c0,0,0-0.1,0-0.1c-0.2,0-0.4,0-0.5,0c0,0,0-0.1,0-0.1
	c-1-0.2-1.9,0.5-2.7,0.5c0,0.4-1.9,0.8-1.9,1.5c-0.1,0-0.1,0-0.2,0c0,0.1,0,0.2,0,0.3c-0.1,0-0.1,0-0.2,0c0,0.1,0,0.1,0,0.2
	c-0.1,0-0.1,0-0.2,0c0,0.1,0,0.1,0,0.2c-0.4,0-0.3,0.8-0.6,0.9c0,0.2,0,0.4,0,0.6c0,0-0.1,0-0.1,0c0,0.1,0,0.2,0,0.3
	c0,0-0.1,0-0.1,0c-0.1,0.5,0.3,1.4,0.3,1.9c0,0,0.1,0,0.1,0c0,0.1,0,0.1,0,0.2c0.4,0,0.1,0.8,0.6,0.8c0,0.1,0,0.2,0,0.3
	c0.1,0,0.1,0,0.2,0c0,0.1,0,0.1,0,0.2c0.1,0,0.1,0,0.2,0c0,0.1,0,0.1,0,0.2c0.1,0,0.1,0,0.2,0c0,0.1,0,0.1,0,0.2
	c0.4,0,0.6,0.7,1,0.7c0,0,0,0.1,0,0.1c0.3,0,0.5,0.3,0.9,0.3c0,0,0,0.1,0,0.1c0.1,0,0.1,0,0.2,0c0.1,1.4,3.3-1.3,3.1-1.3
	c0-0.5,0.2-0.2,0.1-0.7c0,0,0.1,0,0.1,0c0-0.1,0-0.1,0-0.2c0,0,0.1,0,0.1,0c0-0.2,0-0.4,0-0.6c0,0,0.1,0,0.1,0
	c-0.1-0.8-0.6-1.6-0.6-2.2c0,0-0.7-0.5-0.7-0.6c-0.7,0-1.8-0.1-1.8,0.9c0,0-0.1,0-0.1,0c0.1,0.3,0.6,1.3,0.9,1.3
	c-0.1,1.5-1,0.7-1.9,0.8c0-0.1-0.6-0.8-0.7-0.8c-0.3-0.4,0.3-1.8,0.7-1.9c0-0.3,0.2-0.6,0.4-0.6c0-0.8,1.8-1.1,2.4-1.2
	c0,0,0,0.1,0,0.1c0.1,0,0.1,0,0.2,0c0,0,0,0.1,0,0.1c0.5,0,0.3,0.2,0.7,0.1c0,0,0,0.1,0,0.1c0.1,0,0.1,0,0.2,0c0,0.3,0.3,0,0.3,0.3
	c0.5,0,0.2,0.7,0.6,0.7c0,0.1,0,0.2,0,0.4c0,0,0.1,0,0.1,0c0,0.1,0,0.1,0,0.2h0.1c0,0.3,0.2,3.3-0.1,3.3c0,0.1,0,0.1,0,0.2
	c0,0-0.1,0-0.1,0c0,0.7-0.6,1.2-0.5,1.9c-0.2,0-0.9,0.8-0.9,1c-0.1,0-0.2,0-0.3,0c0,0.6-2.7,0.9-3.1,0.8c0,0,0-0.1,0-0.1
	c-0.2,0-0.3,0-0.5,0c0,0,0-0.1,0-0.1c-0.1,0-0.2,0-0.4,0c0-0.3-0.4,0-0.4-0.3c-0.1,0-0.2,0-0.3,0c0,0,0-0.1,0-0.1
	c-0.1,0-0.1,0-0.2,0c0,0,0-0.1,0-0.1c-0.3,0-0.4-0.3-0.7-0.3c0-0.1-1.2-1.2-1.3-1.2c0-0.1,0-0.1,0-0.2c-0.5,0-1.1-1.5-1.1-1.8
	c0,0-0.1,0-0.1,0c0-0.1,0-0.1,0-0.2c0,0-0.1,0-0.1,0c-0.1-1.1-0.1-2.2-0.2-3.4c0,0,0.1,0,0.1,0c0-0.1,0-0.1,0-0.2c0,0,0.1,0,0.1,0
	c0-0.4,0.4-1.8,0.9-1.9c0-0.1,0-0.1,0-0.2c0.4,0,0.2-0.5,0.6-0.5c0-0.1,0-0.1,0-0.2c0.1,0,0.1,0,0.2,0c0-0.3,1.3-1.2,1.6-1.2
	c0-0.3,0.4,0,0.3-0.3c0.1,0,0.2,0,0.3,0c0,0,0-0.1,0-0.1c0.1,0,0.2,0,0.3,0c0,0,0-0.1,0-0.1c0.1,0,0.1,0,0.2,0c0,0,0-0.1,0-0.1
	c0.1,0,0.2,0,0.4,0c0,0,0-0.1,0-0.1c0.1,0,0.1,0,0.2,0c0,0,0-0.1,0-0.1c0.3,0,0.5,0,0.8,0c0-0.2,1.6-0.3,1.8-0.3c0,0,0,0.1,0,0.1
	c0.3,0,0.5,0,0.8-0.1c0,0,0,0.1,0,0.1c0.3,0,0.5,0,0.8,0c0,0,0,0.1,0,0.1c0.1,0,0.1,0,0.2,0c0,0,0,0.1,0,0.1c0.7,0,0.3,0.2,0.9,0.1
	c0,0.3,0.4,0,0.4,0.3c0.3,0,1.7,1,1.7,1.3c0.1,0,0.1,0,0.2,0c0,0.1,0,0.1,0,0.2c0.8,0,1.2,2.2,1.8,2.2c0,0.1,0,0.2,0,0.4
	c0.1,0,0.1,0,0.2,0c0.1,1.5,0.2,3,0.3,4.5c0,0-0.1,0-0.1,0c0,0.1,0,0.1,0,0.2c0,0-0.1,0-0.1,0c0.1,0.8-0.2,0.4-0.1,1.2
	c-0.3,0,0,0.4-0.3,0.4c0,0.1,0,0.3,0,0.5c-0.3,0,0.1,0.5-0.3,0.5c0,0.1,0,0.2,0,0.4c-0.5,0-0.4,1.4-0.9,1.4c0,0.3-1.1,1.5-1.4,1.5
	c0,0.1,0,0.1,0,0.2c-0.1,0-0.1,0-0.2,0c0,0.4-0.4,0.1-0.3,0.4c-0.1,0-0.1,0-0.2,0c0,0,0,0.1,0,0.1c-0.5,0-0.8,0.8-1.4,0.8
	c0,0.3-0.4,0-0.3,0.3c-0.1,0-0.2,0-0.3,0c0,0,0,0.1,0,0.1c-0.1,0-0.1,0-0.2,0c0,0,0,0.1,0,0.1c-0.7,0-0.3,0.2-1,0.2c0,0,0,0.1,0,0.1
	c-0.1,0-0.1,0-0.2,0c0,0,0,0.1,0,0.1c-0.9,0.1-1.7,0.4-2.6,0.3c-0.7-0.1-1.4-0.2-2-0.2c0-0.5-0.8,0-0.8-0.4c-0.5,0-0.3-0.2-0.6-0.1
	c0,0,0-0.1,0-0.1c-0.1,0-0.1,0-0.2,0c0,0,0-0.1,0-0.1c-0.4,0-0.7-0.4-1-0.4c0-0.4-1.4-0.6-1.4-1.1c-0.1,0-0.1,0-0.2,0
	c0-0.1,0-0.1,0-0.2c-0.1,0-0.1,0-0.2,0c0-0.4-0.7-0.4-0.7-0.8c-0.6,0-1.1-1.9-1.5-1.9c0-0.4-0.5-0.7-0.5-1.1c0,0-0.1,0-0.1,0
	c0-0.1,0-0.1,0-0.2c0,0-0.1,0-0.1,0c0-0.1,0-0.2,0-0.4c0,0-0.1,0-0.1,0c0-0.1,0-0.1,0-0.2c0,0-0.1,0-0.1,0c0-0.1,0-0.2,0-0.4
	c0,0-0.1,0-0.1,0c0-0.1,0-0.2,0-0.3c0,0-0.1,0-0.1,0c0-0.1,0-0.2,0-0.4c0,0-0.1,0-0.1,0c0-0.2,0-0.3,0-0.5c0,0-0.1,0-0.1,0
	c0-0.1,0-0.1,0-0.2c0,0-0.1,0-0.1,0c0-0.2,0-0.4,0-0.6c0,0-0.1,0-0.1,0c0-0.1,0-0.1,0-0.2c0,0-0.1,0-0.1,0c0-0.4-0.1-0.8-0.1-1.2
	c0,0-0.1,0-0.1,0c-0.2-0.6,0-1.6,0-2.3c0,0,0.1,0,0.1,0c0-0.1,0-0.2,0-0.3c0,0,0.1,0,0.1,0c0-0.8,0.2-0.4,0.1-1.1c0,0,0.1,0,0.1,0
	c0-0.1,0-0.2,0-0.3c0,0,0.1,0,0.1,0c0-0.1,0-0.2,0-0.3c0,0,0.1,0,0.1,0c0-0.5,0.6-2.4,1-2.4c0-0.1,0-0.2,0-0.4c0.1,0,0.1,0,0.2,0
	c0-0.1,0-0.1,0-0.2c0.1,0,1.7-1.9,1.7-2.1c0.1,0,0.1,0,0.2,0c-0.1-0.9,2.7-1.4,2.7-1.8c0.2,0,0.4,0,0.5,0c0,0,0-0.1,0-0.1
	c0.1,0,0.1,0,0.2,0c0,0,0-0.1,0-0.1c0.2,0,0.4,0,0.5,0c0,0,0-0.1,0-0.1c0.1,0,0.2,0,0.3,0c0,0,0-0.1,0-0.1c0.3,0,0.6,0,0.9-0.1
	c0,0,0-0.1,0-0.1c0.1,0,0.2,0,0.4,0c0,0,0-0.1,0-0.1c0.2,0,0.4,0,0.6,0c0-0.6,1.4,0.2,1.3-0.4c1-0.1,2-0.1,3-0.2c0,0,0,0.1,0,0.1
	c0.1,0,0.2,0,0.4,0c0,0,0,0.1,0,0.1c0.3,0,0.6,0,0.9-0.1c0,0,0,0.1,0,0.1c0.1,0,0.3,0,0.5,0c0,0,0,0.1,0,0.1c0.1,0,0.2,0,0.4,0
	c0,0,0,0.1,0,0.1c0.7,0,0.4,0.2,0.9,0.1c0,0.3,1,0.1,1,0.5c0.4,0,0.8,0.6,1.2,0.6c0,0.2,0.8,0.4,0.8,0.8c0.1,0,0.1,0,0.2,0
	c0,0.4,0.7,0.3,0.7,0.8c0.1,0,0.1,0,0.2,0c0,0.1,0,0.1,0,0.2c0.1,0,0.1,0,0.2,0c0,0.1,0,0.1,0,0.2c0.1,0,0.1,0,0.2,0
	c0,0.1,0,0.1,0,0.2c0.5,0,0.7,1.2,1.3,1.2c0,0.3,0.5,1,0.7,1c0,0.1,0,0.2,0,0.3c0.1,0,0.1,0,0.2,0c0,0.1,0,0.2,0,0.4
	c0.4,0,0.1,0.4,0.4,0.3c0,0.1,0,0.1,0,0.2c0.4,0,0.1,0.8,0.5,0.8c0,0.1,0,0.2,0,0.3c0,0,0.1,0,0.1,0c0,0.1,0,0.1,0,0.2
	c0.3,0,0,0.5,0.3,0.4c0,0.7,0.2,0.3,0.2,1c0,0,0.1,0,0.1,0c0,0.1,0,0.2,0,0.4c0,0,0.1,0,0.1,0c0,0.2,0,0.3,0,0.5c0.5,0-0.1,1,0.3,1
	c0,0.4,0,0.7,0.1,1.1c0,0,0.1,0,0.1,0c0,0.1,0,0.2,0,0.4c0,0,0.1,0,0.1,0c0,0.4,0,0.8,0.1,1.2c0,0,0.1,0,0.1,0c0,0.3,0,0.6,0.1,0.9
	c0,0,0.1,0,0.1,0c0.1,1.9-0.1,3.8,0,5.6c0,0-0.1,0-0.1,0c0,0.1,0,0.2,0,0.3c0,0-0.1,0-0.1,0c0,0.2,0,0.3,0,0.5c0,0-0.1,0-0.1,0
	c0,0.1,0,0.2,0,0.4c0,0-0.1,0-0.1,0c0,0.1,0,0.2,0,0.3c0,0-0.1,0-0.1,0c0,0.6-0.3,0.8-0.3,1.4c-0.4,0-0.2,1.5-0.7,1.5
	c0,0.1,0,0.2,0,0.4c-0.5,0-0.4,1.5-0.9,1.5c0,0.1,0,0.2,0,0.4c-0.7,0-1.1,2.5-1.8,2.6c0,0.1,0,0.1,0,0.2c-0.1,0-0.1,0-0.2,0
	c0,0.3-0.9,1.3-1.2,1.3c0,0.1,0,0.1,0,0.2c-0.1,0-0.1,0-0.2,0c0,0.1,0,0.1,0,0.2c-0.1,0-0.1,0-0.2,0c0.1,1-1.8,2.1-1.8,3
	c-0.2,0-2.8,2.2-2.8,2.5c-0.2,0-1.3,0.3-1.3,0.4c-0.1,0-0.2,0-0.3,0c0,0.7-1.6,1-1.6,1.7c-0.4,0-0.9,0.8-1.3,0.8
	c0,0.3-0.8,0.1-0.8,0.5c-0.1,0-0.4,0.7-0.6,0.7c0,0.1-0.5-0.1-0.5,0c-0.1,0-0.2,0.6-0.6,0.8c-1.2,0.6-1.4,0.9-1.4,0.9
	c0,0.3-1.7,0.9-2,1.4c0.3-0.3-1.5,0.5-2.3,1c0.2-0.1-1.4,0.9-1.3,0.8c-0.4,0.3-1.3,0.8-1.3,0.9c-0.1,0-0.6,0.7-0.6,0.7
	c-0.6,0.3-1.1,0.7-1.5,1.1c0.3-0.4-0.4,0.4-0.8,0.4c0,0-0.7,0.2-0.8,0.4c-0.1,0-1,0.7-1.1,0.7c0,0-1.6,0.2-2.2,0.3v0
	c0,0-0.2,0-0.2,0c-0.1,0-0.1,0-0.2,0c0,0,0-0.1,0-0.1c-0.1,0-0.1,0-0.2,0c0-0.2-0.8-0.4-1-0.4c0-0.6-1-0.2-1-0.7
	c-0.4,0-0.2-0.2-0.5-0.2c0-0.4-1.8-0.8-1.8-1.3c-0.1,0-0.1,0-0.2,0c0-0.7-2.2-2-2.8-2.2c-0.1-0.3-1.3-1.1-1.6-1.1c0,0,0-0.1,0-0.1
	c-0.5,0-1-0.8-1.4-0.8c0-0.7-3.1-1.3-3-2.1c-0.4,0-0.2-0.2-0.5-0.2c0,0,0-0.1,0-0.1c-0.7,0-1.2-0.8-1.8-0.9c0-0.3-0.4,0-0.4-0.3
	c-0.6,0-0.3-0.2-0.8-0.2c0-0.4-1.2-0.2-1.2-0.7c-0.7,0-1.1-0.6-1.8-0.7c0-0.3-1.5-0.7-1.7-0.8c0-0.1,0-0.1,0-0.2c-0.2,0-0.3,0-0.5,0
	c0-0.5-0.7,0-0.6-0.4c-0.1,0-0.1,0-0.2,0c0,0,0-0.1,0-0.1c-0.8-0.1-1.3-0.6-2.1-0.7c0,0,0-0.1,0-0.1c-0.1,0-0.2,0-0.3,0
	c0,0,0-0.1,0-0.1c-0.1,0-0.2,0-0.3,0c0,0,0-0.1,0-0.1c-0.2,0-0.4,0-0.6,0c0,0,0-0.1,0-0.1c-0.1,0-0.2,0-0.3,0c0,0,0-0.1,0-0.1
	c-0.2,0-0.4,0-0.6,0c0,0,0-0.1,0-0.1c-0.1,0-0.1,0-0.2,0c0,0,0-0.1,0-0.1c-0.3,0-0.6,0-0.8-0.1c0,0,0-0.1,0-0.1c-0.1,0-0.1,0-0.2,0
	c0,0,0-0.1,0-0.1c-0.3,0-0.6,0-0.9-0.1c0,0,0-0.1,0-0.1c-0.1,0-0.2,0-0.4,0c0,0,0-0.1,0-0.1c-1.3-0.1-2.6-0.2-3.9-0.2
	c0,0,0,0.1,0,0.1c-0.1,0-0.2,0-0.3,0c0,0,0,0.1,0,0.1c-0.2,0-0.5,0-0.7,0c0,0.6-4,1.1-4.1,2.3c-0.1,0-0.1,0-0.2,0c0,0.1,0,0.1,0,0.2
	c-0.1,0-0.1,0-0.2,0c0,0.1,0,0.1,0,0.2c-0.1,0-0.2,0-0.3,0c0,0.1,0,0.1,0,0.2c-0.3,0-0.6,0.4-0.6,0.6c-0.1,0-0.1,0-0.2,0
	c0,0.1,0,0.1,0,0.2c-0.1,0-0.1,0-0.2,0c0,0.1,0,0.1,0,0.2c-0.2,0-0.8,0.5-0.8,0.8c-0.8,0-1.5,2.5-2.1,2.5c0,0.3-0.2,0.1-0.2,0.5
	c-0.3,0-0.7,1-0.7,1.4c-0.1,0-0.1,0-0.2,0c0,0.1,0,0.2,0,0.3c-0.5,0,0,0.7-0.5,0.7c0,0.4-1.3,2.6-1.6,2.6c0,0.4-0.4,0.4-0.4,0.8
	c-0.3,0-0.1,0.4-0.5,0.3c0,0.1,0,0.2,0,0.3c-0.1,0-0.1,0-0.2,0c0,0.1,0,0.1,0,0.2c-0.1,0-0.1,0-0.2,0c0,0.1,0,0.1,0,0.2
	c-0.4,0-0.6-0.1-0.8-0.2c0-0.5,0.7-2.8,1.2-2.8c0-0.3,0-0.6,0.1-0.9c0.1,0,0.1,0,0.2,0c0-0.1,0-0.1,0-0.2c0.1,0,0.1,0,0.2,0
	c0,0.1,1.6-1,1.4-1c0-0.7,0.2-0.3,0.2-0.9c0.4,0,1-1.2,0.6-1.6c-0.3-0.4-2.3-0.5-2.8-0.5c0-0.2-0.3-0.6-0.5-0.6
	c0-0.5-1.4-0.9-1.4-1.4c-0.1,0-0.2,0-0.3,0c0-0.4-0.4-0.1-0.3-0.4c-1-0.1-1.7-1.1-2.7-1.2c0,0,0-0.1,0-0.1c-0.1,0-0.2,0-0.3,0
	c0,0,0-0.1,0-0.1c-0.1,0-0.2,0-0.4,0c0,0,0-0.1,0-0.1c-0.9,0-1.9-0.6-2.8-0.3c0,0,0,0.1,0,0.1c-0.1,0-0.1,0-0.2,0c0,0,0,0.1,0,0.1
	c-0.2,0-0.5,0-0.7,0c0,0,0,0.1,0,0.1c-0.1,0-0.2,0-0.4,0c0,0,0,0.1,0,0.1c-0.1,0-0.3,0-0.4,0c0,0,0,0.1,0,0.1c-0.1,0-0.2,0-0.4,0
	c0,0.4-0.5-0.1-0.5,0.3c-0.2,0-0.3,0-0.5,0c0,0.6-1,0.2-1.1,0.8c-0.1,0-0.1,0-0.2,0c0,0.1,0,0.1,0,0.2c-1.1-0.1-1.7,2.3-2.2,2.3
	c0,0.1,0,0.2,0,0.3c0,0-0.1,0-0.1,0c0,0.1,0,0.1,0,0.2c0,0-0.1,0-0.1,0c0,0.2-0.4,1.7-0.5,1.7c0,0.2,0,0.4,0,0.6c0,0-0.1,0-0.1,0
	c0,0.9-0.2,1.7-0.3,2.6c-0.1,0.6-0.4,0.5-0.4,0.8c-0.1,0-0.7,0.3-0.7,0.3c-0.2,0-0.4,0-0.6,0c0,0,0,0.1,0,0.1c-0.1,0-0.2,0-0.3,0
	c0,0,0,0.1,0,0.1c-0.3,0-0.6,0-0.8,0c0,0-0.6,0.8-0.6,1.1c-0.1,0.6,0.2,0.4,0.1,0.9c0,0,0.1,0,0.1,0c0,0.1,0,0.1,0,0.2
	c0,0,0.1,0,0.1,0c0,0.5,0.2,0.3,0.1,0.7c0,0,0.1,0,0.1,0c0,0.1,0,0.2,0,0.3c0.3,0,0.8,0.4,1.4,0.5c0-0.5,2-0.8,2.5-0.6
	c0,0,0,0.1,0,0.1c0.7,0,0.4,0.2,0.8,0.2c-0.2,0.6-1.5,1.1-1.9,1.1c0,0,0,0.1,0,0.1c-0.4,0-0.5,0.3-0.9,0.3c0,0.5-2.1,0.8-2.1,1.5
	c-0.1,0-0.1,0-0.2,0c0,0.1,0,0.1,0,0.2c-0.1,0-0.1,0-0.2,0c0,0.1-0.7,0.8-0.9,0.8c0,0.1,0,0.1,0,0.2c-0.1,0-0.1,0-0.2,0
	c0,0.2-0.9,1.1-1.1,1.1c0,0.1,0,0.1,0,0.2c-0.4,0-0.1,0.4-0.5,0.3c0,0.1,0,0.1,0,0.2c-0.5,0-1.9,2.1-2.1,2.6c-0.6,0-1,1.8-1.6,1.8
	c0,0.1,0,0.2,0,0.3c-0.6,0-1.3,1.9-1.4,2.3c0,0-0.1,0-0.1,0c0,0.1,0,0.2,0,0.3c0,0-0.1,0-0.1,0c0,0.1,0,0.3,0,0.4c0,0-0.1,0-0.1,0
	c0,0.2,0,0.4,0,0.6c0,0-0.1,0-0.1,0c0,0.1,0,0.2,0,0.3c0,0-0.1,0-0.1,0c0,0.2,0,0.5,0,0.7c0,0-0.1,0-0.1,0c0,0.1,0,0.2,0,0.4
	c0,0-0.1,0-0.1,0c0,0.8-0.3,1.3-0.3,2.1c0,0-0.1,0-0.1,0c0,0.1,0,0.2,0,0.3c0,0-0.1,0-0.1,0c0,0.3,0,0.5,0,0.7
	c-0.2,0-0.3,2.4-0.4,2.7c0,0,0.1,0,0.1,0c0,0.2,0,0.4,0,0.6c0,0,0.1,0,0.1,0c0,0.3,0,0.6,0,0.8c0,0,0.1,0,0.1,0c0,0.1,0,0.1,0,0.2
	c0,0,0.1,0,0.1,0c0,0.2,0,0.3,0,0.5c0,0,0.1,0,0.1,0c0,0.1,0,0.1,0,0.2c0,0,0.1,0,0.1,0c0,0.6,0.3,0.8,0.3,1.4c0.3,0,0,0.4,0.3,0.4
	c0,0.1,0,0.2,0,0.3c0.7,0,1.1,3.1,2,3.2c0,0.1,0,0.1,0,0.2c0.1,0,0.1,0,0.2,0c0,0.4,0.5,0.3,0.5,0.7c0.1,0,0.2,0,0.3,0
	c0,0.1,0,0.1,0,0.2c0.1,0,0.1,0,0.2,0c0,0.3,0.3,0.1,0.3,0.4c0.1,0,0.1,0,0.2,0c0,0,0,0.1,0,0.1c0.5,0,0.8,0.8,1.4,0.8
	c0,0,0,0.1,0,0.1c0.1,0,0.1,0,0.2,0c0,0.2,0.5,0.4,0.6,0.4c0,0,0,0.1,0,0.1c0.1,0,0.1,0,0.2,0c0,0,0,0.1,0,0.1
	c1,0.1,1.8,2.2,2.8,2.2c0,0.4,0.4,3.4,0.8,3.4c0,0.6,0.6,1.1,0.6,1.6c0.3,0,0.4,0.8,0.7,0.8c0,0.3,0.1,0.4,0.4,0.4
	c0,0.1,0,0.1,0,0.2c0.1,0,0.1,0,0.2,0c0,0.9,1.1,0.3,1.2,0.3c0.1-0.4,0.3-0.8,0-0.8c0-0.6-0.2-0.3-0.1-0.9c-0.3,0-0.2-0.9-0.5-1
	c0-0.2,0-0.3,0-0.5c1.4-0.2,2.5,0.6,3.9,0.7c0,0,0,0.1,0,0.1c0.1,0,0.3,0,0.4,0c0,0,0,0.1,0,0.1c0.2,0,0.4,0,0.7,0c0,0,0,0.1,0,0.1
	c0.2,0,0.3,0,0.5,0c0,0,0,0.1,0,0.1c0.5,0,0.9,0.1,1.4,0.1c0,0,0,0.1,0,0.1c0.1,0,0.2,0,0.4,0c0,0,0-0.1,0-0.1
	c0.7,0,0.4-0.2,0.8-0.1c0-0.1,0-0.1,0-0.2c0.1,0,0.1,0,0.2,0c0-0.1,0-0.2,0-0.3c0,0,0.1,0,0.1,0c-0.1-0.8-0.4-0.6-0.4-1
	c-0.6,0-1.7-0.3-2.5-0.3c0,0,0-0.1,0-0.1c-0.1,0-0.2,0-0.3,0c0,0,0-0.1,0-0.1c-0.2,0-0.4,0-0.6,0c0,0,0-0.1,0-0.1
	c-0.1,0-0.1,0-0.2,0c0,0,0-0.1,0-0.1c-0.1,0-0.1,0-0.2,0c0,0,0-0.1,0-0.1c-0.1,0-0.1,0-0.2,0c0,0,0-0.1,0-0.1c-0.1,0-0.2,0-0.3,0
	c0-0.3-0.4,0-0.4-0.3c-0.6,0-1.3-0.4-1.2-1.1c0.5,0,4.5,0.3,4.5,0.1c0.8,0.1,4.1-0.3,4.2-1.2c0.1,0,0.1,0,0.2,0c0-0.5,0.4-0.1,0.4-1
	c-0.8,0-1.5-0.1-2.3-0.1c0,0,0,0.1,0,0.1c-0.1,0-0.2,0-0.3,0c0,0,0,0.1,0,0.1c-0.1,0-0.3,0-0.4,0c0,0,0,0.1,0,0.1
	c-0.1,0-0.2,0-0.4,0c0,0,0,0.1,0,0.1c-0.1,0-0.2,0-0.3,0c0,0,0,0.1,0,0.1c-0.1,0-0.2,0-0.3,0c0,0.2-0.9,0.3-1.1,0.3c0,0,0,0.1,0,0.1
	c-0.1,0-0.1,0-0.2,0c0,0,0,0.1,0,0.1c-0.1,0-0.2,0-0.4,0c0,0,0,0.1,0,0.1c-0.1,0-0.1,0-0.2,0c0,0,0,0.1,0,0.1c-0.7,0-1.4-0.1-2-0.1
	c0,0,0-0.1,0-0.1c-0.1,0-0.1,0-0.2,0c0-0.5-0.8,0-0.8-0.6c0.2,0,1.2-0.1,1.2-0.3c0.2,0,0.3,0,0.5,0c0,0,0-0.1,0-0.1
	c0.1,0,0.1,0,0.2,0c0,0,0-0.1,0-0.1c0.1,0,0.3,0,0.4,0c0,0,0-0.1,0-0.1c0.1,0,0.1,0,0.2,0c0,0,0-0.1,0-0.1c0.6,0,0.3-0.2,0.8-0.1
	c0,0,0-0.1,0-0.1c0.1,0,0.2,0,0.4,0c0,0,0-0.1,0-0.1c0.1,0,0.1,0,0.2,0c0,0,0-0.1,0-0.1c0.2,0,0.4,0,0.7,0c0,0.1,3.2-0.1,3.7-0.4
	c0.1-1.6-2.9-0.9-4-1c0,0,0,0.1,0,0.1c-0.2,0-0.3,0-0.5,0c0,0,0,0.1,0,0.1c-0.3,0-0.6,0-0.8-0.1c0,0,0,0.1,0,0.1c-0.1,0-0.2,0-0.3,0
	c0,0.3-2-0.1-2,0.3c-0.1,0-0.1,0-0.2,0c0,0,0,0.1,0,0.1c-0.3,0-0.6,0.2-0.9,0.2c0,0,0-0.1,0-0.1c0,0-0.1,0-0.1,0
	c0-0.7,0.2-0.4,0.2-0.8c0.1,0,0.9-0.7,0.9-0.8c0.1,0,0.4-0.3,0.5-0.3c0-0.4,1.4-0.4,1.4-0.6c1.3-0.3,3,0.4,4.2,0.6
	c0.6,0.1,3.3,0.4,1.9-0.8c-0.1-0.1-1.2-1.2-1.2-1.1c-0.1,0-0.2,0-0.3,0c0,0,0-0.1,0-0.1c-0.2,0-0.4,0-0.6,0c0,0,0-0.1,0-0.1
	c-0.1,0-0.1,0-0.2,0c0,0,0-0.1,0-0.1c-0.2,0-0.4,0-0.6,0c0,0,0-0.1,0-0.1c-0.1,0-0.1,0-0.2,0c0,0,0-0.1,0-0.1c-0.2,0-0.4,0-0.6,0
	c0,0,0-0.1,0-0.1c-0.1,0-0.1,0-0.2,0c0-0.6-1.4,0.3-1.4-0.4c-0.4,0-0.9-0.1-1.3-0.1c0,0,0,0.1,0,0.1c-0.2,0-0.3,0-0.5,0
	c0,0,0,0.1,0,0.1c-0.9-0.1-0.5,0.2-1,0.1c0,0-1.1,0.7-1.2,0.7c0,0.1,0,0.2,0,0.3c-0.4,0-0.1,0.4-0.4,0.3c0,0.3-0.2,0.1-0.2,0.5
	c0,0-0.1,0-0.1,0c0,0.3-0.3,0.9-0.6,0.9c0,0.8-2.4,2.1-2.3,1.6c-0.2,0-0.3,0-0.5,0c0-0.3-0.4,0-0.4-0.3c-0.1,0-0.2,0-0.3,0
	c0,0,0-0.1,0-0.1c-0.1,0-0.1,0-0.2,0c0,0,0-0.1,0-0.1c-0.4,0-1.7-1.1-1.7-1.3c-0.1,0-0.2,0-0.3,0c0-0.1,0-0.1,0-0.2
	c-0.1,0-0.1,0-0.2,0c0-0.1,0-0.1,0-0.2c-0.1,0-0.1,0-0.2,0c0-0.6-1.2-0.8-1.1-1.4c-0.1,0-0.1,0-0.2,0c0-0.2-0.2-0.5-0.4-0.5
	c0-0.1,0-0.1,0-0.2c-0.1,0-0.1,0-0.2,0c0-0.4-0.5-0.2-0.4-0.6c-0.5,0-0.6-1.2-0.9-1.3c0-0.5-0.3-0.8-0.3-1.3c0,0-0.1,0-0.1,0
	c0-0.1,0-0.1,0-0.2c0,0-0.1,0-0.1,0c0-0.3,0-0.6,0-0.8c0,0-0.1,0-0.1,0c0-0.3,0-0.6,0.1-0.8c0,0-0.1,0-0.1,0c0-0.4,0.1-0.9,0.1-1.3
	c-0.1,0,0.8-3.3,0.8-3.8c0.3,0,0.9-1.4,0.9-1.6c0.5,0,1-2.5,1.5-2.4c0-0.1,0-0.1,0-0.2c0,0,0.1,0,0.1,0c0-0.1,0-0.1,0-0.2
	c0,0,0.1,0,0.1,0c0-0.5,2.1-3.6,2.5-3.6c0-0.1,0-0.1,0-0.2c0.2,0,0.8-0.8,0.8-1c0.4,0,0.1-0.5,0.5-0.4c0-0.1,0-0.1,0-0.2
	c0.5,0,0.6-0.9,1.1-0.9c0-0.3,0.2-0.6,0.5-0.5c0-0.1,0-0.1,0-0.2c0.1,0,0.1,0,0.2,0c0-0.1,0-0.1,0-0.2c0.1,0,0.1,0,0.2,0
	c0-0.1,0-0.1,0-0.2c0.2,0,0.5-0.2,0.5-0.4c0.1,0,0.1,0,0.2,0c0-0.5,1.8-1.3,1.7-0.5c0.3,0.1,1.6,1.6,1.6,1.8c0.1,0,0.2,0,0.3,0
	c0,0.4,1.1,0.9,1.4,0.9c0,0,0,0.1,0,0.1c0.1,0,0.1,0,0.2,0c0,0,0,0.1,0,0.1c0.9,0.1,2,0.7,3.1,0.5c0,0,0-0.1,0-0.1
	c0.7,0,2.9-0.2,3-1c0.1,0,0.1,0,0.2,0c0-0.2,1-1,1.2-1c0-0.4,0.6-0.2,0.6-0.6c0.5,0,1.2-0.1,1.9-0.1c0,0.5,0.7,0,0.6,0.4
	c0.1,0,0.3,0,0.4,0c0,0,0,0.1,0,0.1c0.1,0,0.1,0,0.2,0c0,0,0,0.1,0,0.1c0.1,0,0.2,0,0.3,0c0,0,0,0.1,0,0.1c0.1,0,0.1,0,0.2,0
	c0,0.3,0.4,0,0.4,0.4c0.1,0,0.1,0,0.2,0c0,0.4,0.5,0.3,0.5,0.7c0.1,0,0.2,0,0.3,0c0,0.1,0,0.1,0,0.2c0.1,0,0.1,0,0.2,0
	c0,0.6,0.8,0.4,0.8,0.9c0.2,0,0.4,0.2,0.4,0.4c0.1,0,0.1,0,0.2,0c0,0.6,2.1,1.3,2,2c0.1,0,0.1,0,0.2,0c0,0.4,0.4,0.1,0.3,0.5
	c0.1,0,0.2,0,0.3,0c0,0.1,0,0.1,0,0.2c0.1,0,0.1,0,0.2,0c0,0.6,2.3,2,2.8,2.5c0.6,0.5,2.1,2,2.8,2.1c0,0.4,0.5,0.2,0.4,0.6
	c0.1,0,0.1,0,0.2,0c0,0.4,0.5,0.3,0.4,0.7c0.1,0,0.1,0,0.2,0c0,0.1,0,0.1,0,0.2c0.4,0,0.3,0.4,0.3,0.7c0,0,0.1,0,0.1,0
	c0,0.3,0,0.6-0.1,0.8c0,0,0.1,0,0.1,0c0,0,0,0.1,0,0.1c0,0-0.1,0-0.1,0c0,0.4,0,0.7-0.1,1.1c0,0-0.1,0-0.1,0c0,0.2,0,0.3,0,0.5
	c0,0-0.1,0-0.1,0c0,0.1,0,0.2,0,0.3c0,0-0.1,0-0.1,0c0,0.1,0,0.2,0,0.3c0,0-0.8,1.6-0.9,1.8c0,0-0.1,0-0.1,0c0,0.1,0,0.2,0,0.3
	c0,0-0.1,0-0.1,0c0,0.1,0,0.1,0,0.2c0,0-0.1,0-0.1,0c0,0.4-0.4,0.6-0.4,1c0,0-0.1,0-0.1,0c0,0.1,0,0.1,0,0.2c0,0-0.1,0-0.1,0
	c0,0.4-0.2,0.2-0.2,0.6c-0.3,0-0.6,1.5-0.9,1.4c0,0.4-1.8,3.8-2.1,3.8c-0.2,1.3-1.3,2.2-1.4,3.6c0,0-0.1,0-0.1,0c0,0.1,0,0.2,0,0.4
	c0,0-0.1,0-0.1,0c0,0.2,0,0.3,0,0.5c0,0-0.1,0-0.1,0c0,0.3,0,0.6,0,0.8c0,0-0.1,0-0.1,0c0,0.1,0,0.1,0,0.2c0,0-0.1,0-0.1,0
	c0,0.7-0.2,0.3-0.2,0.9c-0.4,0-0.8,0.4-1.3,0.4c-0.4,0-0.4-0.2-0.7-0.2c0,0,0,0.1,0,0.1c0,0-0.1,0-0.1,0c0,0,0-0.1,0-0.1
	c-0.2,0-0.4,0-0.6,0c0,0,0-0.1,0-0.1c-0.1,0-0.2,0-0.4,0c0,0,0-0.1,0-0.1c-0.1,0-0.2,0-0.4,0c0,0,0-0.1,0-0.1c-0.1,0-0.2,0-0.3,0
	c0,0,0-0.1,0-0.1c-0.8,0-0.4-0.2-1-0.2c0,0,0-0.1,0-0.1c-0.1,0-0.2,0-0.3,0c0,0,0-0.1,0-0.1c-0.6,0-0.3-0.2-0.9-0.2c0,0,0-0.1,0-0.1
	c-0.1,0-0.1,0-0.2,0c0,0,0-0.1,0-0.1c-0.1,0-0.2,0-0.3,0c0,0,0-0.1,0-0.1c-0.3,0-0.5,0-0.7,0c0,0,0-0.1,0-0.1c-0.1,0-0.1,0-0.2,0
	c0,0,0-0.1,0-0.1c-0.3,0-0.6,0-0.8-0.1c0,0,0-0.1,0-0.1c-0.4-0.1-2.1-0.1-1.6,0.8c0.5,0,1.2,1.1,1.9,1.1c0,0,0,0.1,0,0.1
	c0.1,0,0.1,0,0.2,0c0,0,0,0.1,0,0.1c0.2,0,0.3,0,0.5,0c0,0,0,0.1,0,0.1c0.1,0,0.1,0,0.2,0c0,0,0,0.1,0,0.1c0.1,0,0.2,0,0.4,0
	c0,0,0,0.1,0,0.1c0.2,0,0.4,0,0.6,0c0,0,0,0.1,0,0.1c0.1,0,0.1,0,0.2,0c0,0,0,0.1,0,0.1c0.7,0,1,0.2,1.7,0.3c0,0,0,0.1,0,0.1
	c0.1,0,0.1,0,0.2,0c0,0,0,0.1,0,0.1c0.3,0,0.6,0,0.8,0.1c0,0,0,0.1,0,0.1c0.2,0,0.4,0,0.6,0c0,0.1,1,0.4,1.2,0.4
	c-0.4,1-5.4-0.1-5.4-0.1c-0.3,0-0.6,0-0.9-0.1c0,0,0-0.1,0-0.1c-0.1,0-0.1,0-0.2,0c0-0.5-1.1,0.1-1.1-0.4c-0.1,0-0.1,0-0.2,0
	c0,0,0-0.1,0-0.1c-0.1,0-0.2,0-0.3,0c0,0,0-0.1,0-0.1c-0.7,0-0.3-0.2-0.9-0.2c0-0.4-1.6-0.9-1.6-1.1c-1.4,0.1,0.6,1.8,0.6,2.1
	c0.1,0,0.1,0,0.2,0c0,0.1,0,0.1,0,0.2c0.1,0,0.1,0,0.2,0c0,0.4,1.4,1.2,1.7,1.2c0,0,0,0.1,0,0.1c0.1,0,0.2,0,0.3,0c0,0,0,0.1,0,0.1
	c0.2,0,0.3,0,0.5,0c0,0,0,0.1,0,0.1c0.1,0,0.2,0,0.3,0c0,0.2,5.2,0.6,5.7,0.6c0,0.5-0.9,0.3-0.9,0.6c-0.8-0.1-0.3,0.2-1.3,0.1
	c0-0.2-6.1,0.3-6.8,0.2c0,0,0,0.1,0,0.1c-0.1,0-0.2,0-0.3,0c0,0,0,0.1,0,0.1c-0.6,0-0.8-0.1-0.9,0.6c0.8,0.2,1.3,0.5,2.2,0.5
	c1.5,0.5,3,0.2,4.5,0.3c0,0,0-0.1,0-0.1c0.1,0,0.2,0,0.3,0c0,0,0-0.1,0-0.1c0.2,0,0.5,0,0.7,0c0-0.4,0.7,0.2,0.8-0.2
	c0.1,0,0.2,0,0.3,0c0,0,0-0.1,0-0.1c0.1,0,0.2,0,0.3,0c0,0,0-0.1,0-0.1c0.9,0.1,1.8-1.1,2.9-0.4c-0.1,0.3-0.3,0.8-0.6,0.8
	c0,0.1,0,0.1,0,0.2c-0.1,0-0.1,0-0.2,0c0,0.5-1.2,0.6-1.3,1c-0.2,0-1.7,0.5-1.7,0.7c-0.1,0-0.1,0-0.2,0c0,0.1,0,0.1,0,0.2
	c-0.6,0-0.1,0.4-0.1,0.6c0.1,0,0.2,0,0.3,0c0,0.1,0,0.1,0,0.2c0.3,0,0.5,0,0.7,0c0,0,0-0.1,0-0.1c0.1,0,0.1,0,0.2,0c0,0,0-0.1,0-0.1
	c0.5,0,0.9-0.4,1.4-0.4c0-0.3,1.6-0.9,1.9-1.3c0.4-0.5,1.7-2.6,2.4-2.6c0-0.2,0.2-0.9,0.1-1.2c-0.3,0-0.6-2.4-0.5-2.8
	c0.3,0,0.9-1.8,1.4-1.8c0-0.1,0-0.2,0-0.3c0.5,0,0.5-1.3,1.1-1.2c0-0.1,0-0.2,0-0.4c0.7,0,1.2-2.5,1.7-2.5c0-0.1,0-0.1,0-0.2
	c0,0,0.1,0,0.1,0c0-0.5,0.2-0.3,0.2-0.7c0,0,0.1,0,0.1,0c0-0.1,0-0.1,0-0.2c0,0,0.1,0,0.1,0c0-0.2,0-0.3,0-0.5c0,0,0.1,0,0.1,0
	c0-0.1,0-0.1,0-0.2c0,0,0.4-0.8,0.4-1c0,0,0.1,0,0.1,0c0-0.1,0-0.1,0-0.2c0,0,0.1,0,0.1,0c0-0.6,0.6-0.9,0.6-1.5c0,0,0.1,0,0.1,0
	c0-0.1,0-0.1,0-0.2c0,0,0.1,0,0.1,0c0-0.2,0.5-1.3,0.7-1.3c0-0.1,0-0.2,0-0.4c0.6,0,0.1-1,0.7-1c0-0.1,0-0.2,0-0.4
	c0.1,0,0.1,0,0.2,0c0-0.2,0.5-1.5,0.6-1.5c0-0.1,0-0.1,0-0.2c0,0,0.1,0,0.1,0c0-0.2,0-0.3,0-0.5c0,0,0.1,0,0.1,0c0-0.1,0-0.1,0-0.2
	c0,0,0.1,0,0.1,0c0-0.1,0-0.2,0-0.4c0,0,0.1,0,0.1,0c0-0.1,0-0.1,0-0.2c0,0,0.1,0,0.1,0c0-0.2,0-0.4,0-0.6c0,0,0.1,0,0.1,0
	c0-0.1,0-0.1,0-0.2c0,0,0.1,0,0.1,0c0-0.2,0-0.4,0-0.7c0,0,0.1,0,0.1,0c0.2-0.5,0-1.4,0-2c0,0-0.1,0-0.1,0c0-0.1,0-0.3,0-0.4
	c0,0-0.1,0-0.1,0c0-0.2,0-0.3,0-0.5c0,0-0.1,0-0.1,0c0-0.1,0-0.1,0-0.2c0,0-0.1,0-0.1,0c0-0.2,0-0.3,0-0.5c0,0-0.1,0-0.1,0
	c0-0.1,0-0.1,0-0.2c0,0-0.1,0-0.1,0c0-0.1,0-0.2,0-0.4c-0.3,0,0-0.4-0.3-0.4c0-0.1,0-0.2,0-0.3c-0.4,0-0.2-1.1-0.7-1.2
	c0-0.1,0-0.2,0-0.3c-0.5,0-0.1-0.7-0.6-0.7c0-0.4-1-1.5-1.3-1.8c-0.3-0.2-1.7-1.3-1.7-1.5c-0.1,0-0.2,0-0.3,0c0-0.3-0.3-0.1-0.3-0.4
	c-0.4,0-0.2-0.2-0.5-0.2c0-0.2-1.1-0.7-1.4-0.7c0,0,0-0.1,0-0.1c-0.1,0-0.1,0-0.2,0c0,0,0-0.1,0-0.1c-0.3,0-0.1-0.2-0.5-0.2
	c0,0,0-0.1,0-0.1c-0.5,0-0.7-0.4-1.2-0.4c0,0,0-0.1,0-0.1c-0.1,0-0.1,0-0.2,0c0,0,0-0.1,0-0.1c-1.5-0.1-2.6-2.3-4.1-2.4
	c0-0.3-0.4,0-0.4-0.4c-0.1,0-0.2,0-0.4,0c0,0.1-2-2.4-1.9-2.4c0.1-0.2,0.1-0.5,0.4-0.4c0-0.2,0.5-0.6,0.7-0.6c0-0.1,0-0.1,0-0.2
	c0.1,0,0.1,0,0.2,0c0-0.1,0-0.1,0-0.2c0.1,0,0.1,0,0.2,0c0-0.2,0.7-0.9,0.9-0.9c0-0.1,0-0.2,0-0.3c0.7,0,1.2-1.8,1.8-1.8
	c0-0.1,0-0.1,0-0.2c0.1,0,0.1,0,0.2,0c0-0.1,0-0.2,0-0.3c0.1,0,0.1,0,0.2,0c0-0.1,0-0.1,0-0.2c0.5,0,0.3-0.6,0.7-0.6
	c0-0.1,0-0.1,0-0.2c0.5,0,0.6-1,1.1-1c0-0.1,0-0.1,0-0.2c0.4,0,0.2-0.5,0.6-0.4c0-0.1,0-0.1,0-0.2c0.8,0,1.7-1.9,2.6-2.1
	c0-0.6,2.1-0.9,2.1-1.4c0.5,0,0.7-0.3,1.2-0.3c0-0.4,0.6,0.1,0.7-0.2c0.9,0.1,2.1-0.2,3,0.1c0,0,0,0.1,0,0.1c0.4,0,0.7,0,1.1,0.1
	c0,0,0,0.1,0,0.1c0.1,0,0.2,0,0.3,0c0,0.2,1.8,0.3,1.8,0.7c0.8,0,0.4,0.2,1,0.3c0,0.3,0.6,0.1,0.5,0.4c0.1,0,0.1,0,0.2,0
	c0,0,0,0.1,0,0.1c0.1,0,0.2,0,0.4,0c0,0.3,0.9,0.3,0.9,0.6c0.1,0,0.1,0,0.2,0c0,0,0,0.1,0,0.1c0.1,0,0.1,0,0.2,0
	c0,0.1,0.8,0.4,1,0.4c0,0,0,0.1,0,0.1c0.1,0,0.1,0,0.2,0c0,0,0,0.1,0,0.1c0.4,0,0.2,0.2,0.6,0.2c0,0,0,0.1,0,0.1c0.1,0,0.1,0,0.2,0
	c0,0,0,0.1,0,0.1c0.1,0,0.2,0,0.3,0c0,0.3,0.4,0,0.4,0.3c0.3,0,2.6,1,2.5,1.4c0.4,0,0.2,0.2,0.6,0.2c0,0,0,0.1,0,0.1
	c0.1,0,0.1,0,0.2,0c0,0,0,0.1,0,0.1c0.3,0,0.1,0.2,0.5,0.2c0,0,0,0.1,0,0.1c0.1,0,0.1,0,0.2,0c0-0.4,2.6,2.7,1.9,2.6
	c0.1,0.3,0,0.5-0.2,0.5c0,0.2,0,0.4,0,0.7c0,0-0.1,0-0.1,0c0,0.1,0,0.2,0,0.3c-0.4,0,0,0.7-0.3,0.6c0,0.1,0,0.1,0,0.2
	c0,0-0.1,0-0.1,0c0,0.6-2,4.8-2.2,4.8c0,0.1,0,0.1,0,0.2c0,0-0.1,0-0.1,0c0,0.2-0.6,1.8-0.8,1.8c0,0.1,0,0.1,0,0.2c0,0-0.1,0-0.1,0
	c0,0.1,0,0.2,0,0.3c0,0-0.1,0-0.1,0c0,0.2,0,0.3,0,0.5c0,0-0.1,0-0.1,0c0,0.1,0,0.1,0,0.2c0,0-0.1,0-0.1,0c0,0.6-0.2,0.2-0.2,1
	c0,0-0.1,0-0.1,0c0,0.1,0,0.1,0,0.2c-0.4,0,0.1,0.8-0.3,0.8c0,0.1,0,0.1,0,0.2c0,0-0.1,0-0.1,0c0,0.1,0,0.2,0,0.4c0,0-0.1,0-0.1,0
	c0,0.1,0,0.2,0,0.3c0,0-0.1,0-0.1,0c0,0.2,0,0.4,0,0.6c0,0-0.1,0-0.1,0c0,0.1,0,0.1,0,0.2c0,0-0.1,0-0.1,0c0,0.2,0,0.4,0,0.6
	c0,0-0.1,0-0.1,0c0,0.1,0,0.1,0,0.2c-0.5,0,0.1,1.1-0.4,1.1c0,0.1,0,0.2,0,0.3c0,0-0.1,0-0.1,0c0,0.1,0,0.2,0,0.4
	c-0.4,0-0.4,2.7-0.7,2.7c0,0.2,0,0.3,0,0.5c0,0-0.1,0-0.1,0c-0.1,1.7-0.3,3.5-0.4,5.2c0,0,0.1,0,0.1,0c0,0.4,0,0.7-0.1,1.1
	c0,0,0.1,0,0.1,0c0,0.1,0,0.2,0,0.3c0,0,0.1,0,0.1,0c0,0.3,0,0.5,0,0.7c0,0,0.1,0,0.1,0c0,0.1,0,0.2,0,0.3c0.6,0-0.2,1.3,0.4,1.3
	c0,0.1,0,0.1,0,0.2c0.5,0-0.1,0.8,0.4,0.9c0,0.1,0,0.2,0,0.4c0.4,0,0,0.5,0.3,0.5c0,0.5,0.6,0.9,0.6,1.3c0.7,0,1.1,2.8,1.9,2.8
	c0,0.1,0,0.2,0,0.3c0.1,0,0.1,0,0.2,0c0,0.1,0,0.1,0,0.2c0.4,0,0,0.4,0.4,0.4c0,0.4,2,3.1,2.4,3.1c0,0.3,0.1,0.4,0.4,0.4
	c0,0.1,0,0.2,0,0.3c0.1,0,0.1,0,0.2,0c0,0.1,0,0.1,0,0.2c0.2,0,0.5,0.2,0.4,0.4c0.1,0,0.1,0,0.2,0c0,0.1,0,0.1,0,0.2
	c0.1,0,0.1,0,0.2,0c0,0.1,0,0.1,0,0.2c0.1,0,0.1,0,0.2,0c0,0.2,0.6,0.8,0.8,0.8c0,0.2,0.4,0.6,0.6,0.6c0,0.1,0,0.1,0,0.2
	c0.3,0,0.3,0.3,0.4,0.6c-0.6,0.3-1.1,0.2-1.9,0.2c0,0,0,0.1,0,0.1c-0.1,0-0.2,0-0.3,0c0,0,0,0.1,0,0.1c-0.9-0.1-1.7,0.5-1.8,1.6
	c0.1,0,0.1,0,0.2,0c0,0.4,0.4,0.1,0.3,0.4c0.4,0.2,2-0.6,1.9,0.2c-0.1,0-0.1,0-0.2,0c0,0.5-0.8,0.1-0.8,0.9c0.1,0,0.7,0.3,1.1,0.3
	c0,0.1,0,0.2,0,0.4c-0.1,0-0.1,0-0.2,0c0,0.1,0,0.1,0,0.2c-0.1,0-0.1,0-0.2,0c-0.2,0.9,0.5,1.7,1.5,1.2c0.2-0.2,0.6-0.7,0.9-0.7
	c0-0.1,0-0.2,0-0.3c0.4,0,0.7-0.8,1.3-0.8c0,0,0-0.1,0-0.1c0.8,0,1.5-0.9,2.2-0.9c0-0.3,0.7-0.3,0.7-0.5c0.2,0,0.3,0,0.5,0
	c0,0,0-0.1,0-0.1c0.1,0,0.3,0,0.4,0c0,0,0-0.1,0-0.1c0.4,0,0.9,0.1,1.3,0.1c0,0,0,0.1,0,0.1c0.3,0,1.4,0.1,1.4-0.3
	c0.1,0,0.2,0,0.3,0c0-0.2,0.4-0.5,0.5-0.8c0.1-0.5,0-0.9,0-1.4c0,0-0.1,0-0.1,0c0-0.1,0-0.1,0-0.2c-0.3,0,0-0.3-0.4-0.3
	c0-0.1,0-0.1,0-0.2c-0.2,0-1.3-1.2-1.3-1.3c-0.2,0-0.4,0-0.6,0c0,0,0-0.1,0-0.1c-0.3-0.1-1,0-1.3,0c0,0,0,0.1,0,0.1
	c-0.1,0-0.1,0-0.2,0c0,0,0,0.1,0,0.1c-0.2,0-0.4,0-0.6,0c0,0,0,0.1,0,0.1c-0.1,0-0.2,0-0.3,0c0,0,0,0.1,0,0.1c-0.8,0-2.1,0-2.1-1.2
	c-0.6,0-0.1-0.9-0.7-1c0-0.1,0-0.2,0-0.3c-0.5,0-0.1-0.7-0.6-0.7c0-0.1,0-0.2,0-0.4c-0.1,0-0.1,0-0.2,0c0-0.1,0-0.2,0-0.3
	c-0.1,0-0.1,0-0.2,0c0-0.4-0.2-0.2-0.2-0.6c-0.5,0-0.3-1-0.8-1.1c0-0.1,0-0.2,0-0.3c-0.5,0-0.1-0.8-0.6-0.8c0-0.1,0-0.2,0-0.3
	c-0.4,0,0-0.4-0.4-0.4c0.1-0.9-1.4-1.7-1.3-2.7c-0.9-0.1-1.4-4.4-2.2-4.4c0-0.2-0.3-0.9-0.4-1c0-0.6-0.2-0.3-0.1-0.9
	c0,0-0.1,0-0.1,0c0-0.1,0-0.2,0-0.4c0,0-0.1,0-0.1,0c-0.1-0.5,0.3-1.4,0.3-2c0,0,0.1,0,0.1,0c0-0.1,0-0.1,0-0.2
	c0.3,0,0.8-4.3,1.4-4.3c0-0.2,0-0.3,0-0.5c0,0,0.1,0,0.1,0c0-0.1,0-0.1,0-0.2c0,0,0.1,0,0.1,0c0-0.1,0-0.2,0-0.3c0,0,0.1,0,0.1,0
	c0-0.2,0-0.3,0-0.5c0,0,0.1,0,0.1,0c0-0.1,0-0.1,0-0.2c0,0,0.1,0,0.1,0c0-0.7,0.6-1.2,0.7-1.9c0,0,0.1,0,0.1,0c0-0.1,0-0.1,0-0.2
	c0,0,0.1,0,0.1,0c0-0.1,0-0.2,0-0.3c0,0,0.1,0,0.1,0c0-0.1,0-0.3,0-0.4c0,0,0.1,0,0.1,0c0-0.1,0-0.1,0-0.2c0,0,0.1,0,0.1,0
	c0-0.5,0.4-0.9,0.5-1.5c0,0,0.1,0,0.1,0c0-0.1,0-0.2,0-0.3c0,0,0.1,0,0.1,0c0-0.1,0-0.2,0-0.3c0,0,0.1,0,0.1,0c0-0.1,0-0.2,0-0.3
	c0,0,0.1,0,0.1,0c0-0.1,0-0.1,0-0.2c0,0,0.1,0,0.1,0c0-0.2,0-0.4,0-0.6c0,0,0.1,0,0.1,0c0-0.1,0-0.1,0-0.2c0,0,0.1,0,0.1,0
	c0-0.7,0.2-0.3,0.3-1.1c0,0,0.1,0,0.1,0c0-0.1,0-0.2,0-0.3c0,0,0.1,0,0.1,0c0-0.9,0.6-1.5,0.6-2.4c0,0,0.1,0,0.1,0
	c0-0.1,0-0.2,0-0.3c0,0,0.1,0,0.1,0c0-0.2,0-0.3,0-0.5c0.5,0,0.8-2.1,1.5-2.1c0-0.3,0.3-0.1,0.3-0.4c0.1,0,0.1,0,0.2,0
	c0,0,0-0.1,0-0.1c0.1,0,0.1,0,0.2,0c0,0,0-0.1,0-0.1c0.6-0.2,1.4,0.6,2,0.7c0,0,0,0.1,0,0.1c0.1,0,0.1,0,0.2,0c0,0,0,0.1,0,0.1
	c0.1,0,0.2,0,0.3,0c0,0.6,2.8,1.3,2.8,2.2c0.3,0,0.4,0.2,0.3,0.5c0.3,0,0.5,1.5,0.4,1.9c0,0,0.1,0,0.1,0c0,0.2,0,0.4,0,0.6
	c0,0,0.1,0,0.1,0c0,0.2,0,0.4,0,0.6c0,0,0.1,0,0.1,0c-0.2,2.9-0.8,5.8-1,8.7c-0.3,0-0.3,1.4-0.3,1.5c-0.5,0,0.2,1.1-0.3,1.1
	c0,0.1,0,0.2,0,0.4c0,0-0.1,0-0.1,0c0,0.3,0,0.6-0.1,0.8c-0.5,0,0.2,1-0.3,1c0,0.1,0,0.2,0,0.3c0,0-0.1,0-0.1,0c0,0.2,0,0.3,0,0.5
	c0,0-0.1,0-0.1,0c-0.1,1.4-0.4,2.8-0.4,4.3h0.1c0,0.1,0,0.1,0,0.2c0,0,0.1,0,0.1,0c0,0.2,0,0.4,0,0.6c0,0,0.1,0,0.1,0
	c0,0.1,0,0.2,0,0.3c0,0,0.1,0,0.1,0c0,0.1,0,0.3,0,0.4c0.3,0,0,0.4,0.3,0.4c0,0.6,0.5,1.1,0.5,1.7c0,0,0.1,0,0.1,0
	c0,0.1,0,0.1,0,0.2c0.5,0,0,0.8,0.5,0.9c0,0.5,0.2,0.3,0.1,0.7c0.5,0,0.2,1.2,0.8,1.3c0,0.1,0,0.3,0,0.4c0.1,0,0.1,0,0.2,0
	c0,0.1,0,0.2,0,0.3c0,0,0.6,0.7,0.6,0.9c0.1,0,0.1,0,0.2,0c0,0.1,0,0.1,0,0.2c0.1,0,0.1,0,0.2,0c0,0.4,1.6,1.4,2,1.5
	c0,1-1.8,1.2-2.6,1.2c0,0.1-0.5,0.4-0.6,0.4c-0.2,0.6,0,1.2,0.8,1c0-0.2,1.9-0.8,2.3-0.8c0,0,0,0.1,0,0.1c0,0,0.1,0,0.1,0
	c0,0,0,0.1,0,0.1c-0.3,0-0.1,0.4-0.5,0.3c0,0.2-1,0.9-1.1,0.9c0,0.4-0.1,0.9-0.1,1.3c0.4,0.1,0.5,0.1,0.8,0c0-0.1,0-0.1,0-0.2
	c0.1,0,0.1,0,0.2,0c0-0.1,0-0.3,0-0.4c0.1,0,0.1,0,0.2,0c0-0.1,0-0.1,0-0.2c0.6,0,0.1-0.8,0.7-0.8c0-0.8,0.9-0.1,1.1-0.1
	c-0.2,0.3-0.6,0.7-0.6,1.2c-0.2,0-0.4,0.6-0.4,0.8c0,0-0.1,0-0.1,0c0,0.1,0,0.1,0,0.2c0,0-0.1,0-0.1,0c-0.4,0.9,0.1,1.2,0.8,1.3
	c0-0.1,0-0.1,0-0.2c0.2,0,1-0.7,1-1c0.2,0,0.3-0.4,0.3-0.5c0.5,0,0.5-1.1,1.1-1.1c0-0.4,0.4,0,0.4-0.3c0.1,0,0.1,0,0.2,0
	c0,0,0-0.1,0-0.1c0.1,0,0.2,0,0.3,0c0,0,0-0.1,0-0.1c0.1,0,0.1,0,0.2,0c0-0.2,2.4-0.7,2.7-0.7c0-0.3,0.4,0,0.4-0.3
	c1.1,0.1,1.8-1.7,1.8-2.6c0.1-1.5-1.3-2-2.8-2.1c0,0,0,0.1,0,0.1c-0.1,0-0.1,0-0.2,0c0,0.4-1.5,0.2-1.5,0.6c-0.5,0-0.2,0.2-0.8,0.1
	c0,0,0,0.1,0,0.1c-0.1,0-0.2,0-0.3,0c0,0,0,0.1,0,0.1c-0.6,0-1.1,0.2-1.7-0.2c-0.3-0.2-0.4-0.5-0.7-0.6c0-0.2-0.6-1.2-0.8-1.3
	c0-0.3-0.2-0.2-0.2-0.5c0,0-0.1,0-0.1,0c0-0.1,0-0.1,0-0.2c0,0-0.1,0-0.1,0c0-0.1,0-0.1,0-0.2c0,0-0.1,0-0.1,0
	c0-0.5-0.2-0.3-0.1-0.7c0,0-0.1,0-0.1,0c0-0.1,0-0.1,0-0.2c0,0-0.1,0-0.1,0c0-0.6-0.2-0.3-0.1-0.8c-0.3,0,0-0.6-0.3-0.6
	c0-0.1,0-0.1,0-0.2c0,0-0.1,0-0.1,0c0-0.6-0.3-0.9-0.3-1.5c0,0-0.1,0-0.1,0c0-0.1,0-0.1,0-0.2c0,0-0.1,0-0.1,0c0-0.3,0-0.6,0.1-0.8
	c0,0-0.1,0-0.1,0c0-0.2,0-0.5,0-0.7c0,0-0.1,0-0.1,0c-0.1-0.6,0.2-1.6,0.2-2.2c0,0,0.1,0,0.1,0c0-0.3,0-0.6,0.1-0.9c0,0,0.1,0,0.1,0
	c0-0.1,0-0.2,0-0.3c0,0,0.1,0,0.1,0c0.1-1.1,0.2-0.5,0.3-1.5c0,0,0.1,0,0.1,0c0-0.1,0-0.2,0-0.3c0,0,0.1,0,0.1,0c0-0.2,0-0.3,0-0.5
	c0,0,0.1,0,0.1,0c0-0.1,0-0.2,0-0.4c0.4,0-0.1-0.8,0.3-0.7c0-0.1,0-0.2,0-0.3c0,0,0.1,0,0.1,0c0-0.2,0-0.4,0-0.7c0,0,0.1,0,0.1,0
	c0-0.1,0-0.1,0-0.2c0,0,0.1,0,0.1,0c0-0.2,0-0.5,0-0.7c0,0,0.1,0,0.1,0c0-0.1,0-0.1,0-0.2c0,0,0.1,0,0.1,0c0-0.2,0-0.4,0-0.7
	c0,0,0.1,0,0.1,0c0-0.1,0-0.2,0-0.3c0,0,0.1,0,0.1,0c0-0.4,0-0.7,0.1-1.1c0,0,0.1,0,0.1,0c0.4-1,0-2.3,0.1-3.3c0,0-0.1,0-0.1,0
	c0-0.1,0-0.1,0-0.2c0,0-0.1,0-0.1,0c0.1-0.9-0.2-0.4-0.1-1.3c0,0-0.1,0-0.1,0c0-0.1,0-0.1,0-0.2c0,0-0.1,0-0.1,0c0-0.2,0-0.4,0-0.6
	c0,0-0.1,0-0.1,0c0-0.1,0-0.2,0-0.4c0,0-0.1,0-0.1,0c0-0.2,0-0.3,0-0.5c0,0-0.1,0-0.1,0c0-0.2,0-0.4,0-0.6c0,0-0.1,0-0.1,0
	c0-0.4,0.1-2.2,0.6-2.5l0,0.1c0,0,0-0.1,0.1-0.1c0,0,0,0,0,0l0,0c0.5-0.4,2.6-1.1,2.6-1.4c0.4,0,1.1-0.4,1.4-0.4
	c0-0.1,0.6-0.5,0.9-0.5c0,0,0.4-0.2,0.4-0.2c0.1,0,0.1-0.2,0.2-0.2c0,0,0-0.1,0-0.1c0.2,0,0.3,0,0.5,0c0,0,0-0.1,0-0.1
	c0.1,0,0.2,0,0.4,0c0,0,0-0.1,0-0.1c0.1,0,0.2,0,0.4,0c0,0,0-0.1,0-0.1c0.2,0,0.4,0,0.5,0c0,0,0-0.1,0-0.1c0.1,0,0.1,0,0.2,0
	c0,0,0-0.1,0-0.1c0.2,0,0.3,0,0.4,0c0,0,0-0.1,0-0.1c0.1,0,0.1,0,0.2,0c0,0,0-0.1,0-0.1c0.2,0,0.4,0,0.6,0c0,0,0-0.1,0-0.1
	c0.1,0,0.1,0,0.2,0c0,0,0-0.1,0-0.1c0.2,0,0.3,0,0.5,0c0-0.3,0.6,0,0.6-0.3c0.1,0,0.2,0,0.3,0c0-0.1,1.5-0.6,1.7-0.6
	c0,0,0-0.1,0-0.1c0.1,0,0.1,0,0.2,0c0,0,0-0.1,0-0.1c0.1,0,0.2,0,0.4,0c0,0,0-0.1,0-0.1c0.1,0,0.2,0,0.3,0c0,0,0-0.1,0-0.1
	c0.1,0,0.1,0,0.2,0c0,0,0-0.1,0-0.1c0.2,0,1.9-0.7,1.9-0.8c0.1,0,0.1,0,0.2,0c0-0.3,0.4,0,0.3-0.3c0.6,0,0.8-0.6,1.4-0.6
	c0-0.3,0.4,0,0.3-0.3c0.4,0,0.2-0.2,0.6-0.2c0-0.5,2.6-1.5,3-2.2c0.4,0,2.6-2,2.5-2.4c0.1,0,0.2,0,0.3,0c0-0.1,0-0.1,0-0.2
	c0.1,0,0.1,0,0.2,0c0-0.5,1-0.6,0.9-1.1c0.1,0,0.1,0,0.2,0c0-0.1,0-0.1,0-0.2c0.8-0.1,1-1.3,1.7-1.4c0-0.2,0.9-1.1,1.1-1.1
	c0-0.1,0-0.1,0-0.2c0.1,0,0.1,0,0.2,0c0-0.1,0-0.1,0-0.2c0.3,0,0.2-0.6,0.2-0.8c0.1,0,0.1,0,0.2,0c0-0.1,0-0.2,0-0.3
	c0.1,0,0.2,0,0.3,0c0-0.3,2-2.8,2.2-2.8c0-0.1,0-0.1,0-0.2c0.5,0,0.5-1.2,0.9-1.2c0-0.1,0-0.2,0-0.3c0.1,0,0.2-0.1,0.4-0.3v0
	c0.5-0.8,1.2-2.7,1.2-3.1c0.5,0,0.6-2.3,1-2.3c0-0.5,0.3-0.8,0.3-1.3c0,0,0.1,0,0.1,0c0-0.1,0-0.1,0-0.2
	C126.1,82.3,126.3,78.7,126.3,78.3z"/>
<path fill="#FFFFFF" d="M22.6,19.1c-1.7,0-3,1.4-3,3v10.6h6.1V22.1C25.7,20.4,24.4,19.1,22.6,19.1 M47,19.9h-3v12.9h3
	c1.7,0,3-1.4,3-3v-6.9C50,21.2,48.7,19.9,47,19.9 M32.8,90.6h-7.2V75.7h-6.1v14.9h-7.1V53.7h7.1v14.9h6.1V53.7h7.2V90.6z M32.8,49.7
	h-7.2v-10h-6.1v10h-7.1V22.1C12.5,16.5,17,12,22.6,12c5.6,0,10.2,4.5,10.2,10.1V49.7z M55.2,60.8H44v7.8h7.7v7H44v7.8h11.2v7.1H36.9
	V53.7h18.3V60.8z M57.2,29.8c0,5.6-4.6,10.1-10.2,10.1h-3v9.8h-7.1V12.8H47c5.6,0,10.2,4.5,10.2,10.1V29.8z M78.5,81.5
	c0,5.6-4.6,10.1-10.2,10.1c-5.6,0-10.1-4.5-10.1-10.1V53.8h7.1v27.8c0,1.7,1.4,3,3,3c1.7,0,3-1.4,3-3V53.8h7.2V81.5z M78.9,19.9
	H67.7v7.8h7.7v7h-7.7v7.8h11.2v7.1H60.6V12.8h18.3V19.9z M100.9,83.5v7.1H82.6V53.7h7.1v29.8H100.9z M104.5,49.7h-8.4L89,27.4h-0.2
	l0.9,6.4v15.9h-7.1V12.8H91l7.1,22.3h0.2l-0.9-6.5V12.8h7.2V49.7z"/>
</svg>
